HIERARCHY
ROOT Hips
{
  OFFSET -35.4901 99.2528 17.4586
  CHANNELS 6 Xposition Yposition Zposition Zrotation Xrotation Yrotation
  JOINT LeftUpLeg
  {
    OFFSET 8.64259 1.95398 -2.38835
    CHANNELS 3 Zrotation Xrotation Yrotation
    JOINT LeftLeg
    {
      OFFSET 43.7702 0 0
      CHANNELS 3 Zrotation Xrotation Yrotation
      JOINT LeftFoot
      {
        OFFSET 40.6238 0 0
        CHANNELS 3 Zrotation Xrotation Yrotation
        JOINT LeftToeBase
        {
          OFFSET 12.7242 0 0
          CHANNELS 3 Zrotation Xrotation Yrotation
          End Site
          {
            OFFSET 0 0 0
          }
        }
      }
    }
  }
  JOINT RightUpLeg
  {
    OFFSET -8.2249 1.95398 -2.59336
    CHANNELS 3 Zrotation Xrotation Yrotation
    JOINT RightLeg
    {
      OFFSET 43.5653 0 0
      CHANNELS 3 Zrotation Xrotation Yrotation
      JOINT RightFoot
      {
        OFFSET 40.6238 0 0
        CHANNELS 3 Zrotation Xrotation Yrotation
        JOINT RightToeBase
        {
          OFFSET 12.7242 0 0
          CHANNELS 3 Zrotation Xrotation Yrotation
          End Site
          {
            OFFSET 0 0 0
          }
        }
      }
    }
  }
  JOINT Spine
  {
    OFFSET 0.165834 0.87714 6.61349
    CHANNELS 3 Zrotation Xrotation Yrotation
    JOINT Spine1
    {
      OFFSET 7.38963 1.71661e-005 0
      CHANNELS 3 Zrotation Xrotation Yrotation
      JOINT Spine2
      {
        OFFSET 11.9445 1.14441e-005 0
        CHANNELS 3 Zrotation Xrotation Yrotation
        JOINT Spine3
        {
          OFFSET 14.7254 4.19617e-005 0
          CHANNELS 3 Zrotation Xrotation Yrotation
          JOINT Spine4
          {
            OFFSET 10.9679 0 0
            CHANNELS 3 Zrotation Xrotation Yrotation
            JOINT RightShoulder
            {
              OFFSET 2.46616 -1.6653 3.69651
              CHANNELS 3 Zrotation Xrotation Yrotation
              JOINT RightArm
              {
                OFFSET 13.0012 0 0
                CHANNELS 3 Zrotation Xrotation Yrotation
                JOINT RightForeArm
                {
                  OFFSET 28.7848 1.52588e-005 0
                  CHANNELS 3 Zrotation Xrotation Yrotation
                  JOINT RightHand
                  {
                    OFFSET 26.5688 1.52588e-005 0
                    CHANNELS 3 Zrotation Xrotation Yrotation
                    End Site
                    {
                      OFFSET 0 0 0
                    }
                  }
                }
              }
            }
            JOINT LeftShoulder
            {
              OFFSET 2.38034 -1.29275 -3.7523
              CHANNELS 3 Zrotation Xrotation Yrotation
              JOINT LeftArm
              {
                OFFSET 16.3182 6.10351e-005 0
                CHANNELS 3 Zrotation Xrotation Yrotation
                JOINT LeftForeArm
                {
                  OFFSET 27.0901 0 0
                  CHANNELS 3 Zrotation Xrotation Yrotation
                  JOINT LeftHand
                  {
                    OFFSET 24.5451 1.52588e-005 0
                    CHANNELS 3 Zrotation Xrotation Yrotation
                    End Site
                    {
                      OFFSET 0 0 0
                    }
                  }
                }
              }
            }
            JOINT Neck
            {
              OFFSET 5.0226 -0.0266342 0
              CHANNELS 3 Zrotation Xrotation Yrotation
              JOINT Head
              {
                OFFSET 6.69364 2.86102e-005 0
                CHANNELS 3 Zrotation Xrotation Yrotation
                End Site
                {
                  OFFSET 0 0 0
                }
              }
            }
          }
        }
      }
    }
  }
}
MOTION
Frames:	18
Frame Time:	0.0416667
-81.9803 90.0042 -14.0016 86.8653 -15.3522 80.8368 -174.682 37.2461 78.3757 -49.3946 24.4081 -3.62448 70.3877 4.82189 4.73549 19.0788 5.70718 -7.18302 168.604 -10.1397 94.9712 -62.841 -7.97296 4.47547 70.8507 -5.28328 -1.51169 14.4523 -2.473 6.33239 3.54553 8.6131 -88.2565 9.55243 7.85479 2.8573 -2.09703 7.97287 2.50697 -24.7528 6.63265 5.09255 -4.74015 6.63266 5.09256 90.7194 -12.0708 -114.303 2.52064 -17.0303 1.4412 -44.9575 -11.0239 -76.1262 -35.9536 1.73909 -15.2841 -83.3058 -46.3543 88.4162 -12.8526 31.134 23.6686 37.0452 4.36482 -66.8764 6.66291 -0.70348 -12.1286 27.6975 -29.4809 -13.9007 -7.36357 -23.0108 -9.82699 
-77.1213 88.7898 -9.0161 86.9468 -16.9409 80.1196 -174.912 36.1366 78.7392 -58.5735 20.0809 -1.13087 79.6901 8.98222 1.91476 14.9858 1.04302 -0.290003 165.833 -1.82064 92.2498 -81.3887 -0.61512 2.4453 74.7815 -7.88894 -2.83445 14.6332 -3.01796 7.40029 3.10841 8.65231 -88.1234 9.46845 7.04225 3.19005 -2.18652 7.17574 2.87583 -24.8011 5.75847 5.16223 -4.78848 5.75847 5.16221 89.1755 -17.2881 -114.774 7.71236 -19.0805 9.03664 -45.8876 -11.8874 -76.1634 -36.0812 1.11839 -13.217 -84.139 -47.9195 87.2948 -4.59249 31.6269 12.5069 36.4695 1.5951 -68.9763 6.84433 -0.78342 -12.9501 26.3601 -27.4548 -15.1035 -5.58573 -20.8894 -10.1672 
-72.4411 87.749 -4.1475 87.8814 -18.075 77.6559 -175.025 31.2622 78.6312 -60.3789 18.1461 -0.45778 84.3735 11.0385 0.723326 22.9525 1.71371 -2.08237 166.7 8.03846 89.2725 -97.3859 0.978652 0.127075 80.8632 -11.0589 -3.6857 10.6505 -2.53316 6.39882 2.48946 8.95497 -87.8508 8.85169 5.92226 3.857 -2.8107 6.08612 3.59221 -25.3689 4.49085 5.45797 -5.35622 4.49085 5.45797 88.5345 -20.5038 -114.334 15.8903 -20.5108 17.393 -46.1962 -12.2412 -76.0639 -35.5624 0.93934 -12.7595 -84.2003 -48.499 87.2713 4.19446 28.0585 -3.88833 35.6639 -0.356049 -71.3486 10.7401 -1.02995 -12.5511 28.9564 -25.5591 -13.8754 -5.91258 -18.9678 -11.9823 
-67.5027 86.789 0.999625 88.0756 -19.0501 76.4282 -174.966 26.1814 80.4901 -61.2503 16.602 -0.294186 89.9144 12.978 -1.79649 26.315 1.3233 -1.9151 172.464 17.8697 85.5069 -109.002 -3.42915 -0.763226 87.8361 -14.3013 -3.59316 3.96698 -2.85994 6.75794 1.8356 9.0812 -87.7123 8.60771 4.67546 4.22586 -3.06102 4.85675 4.01605 -25.5774 3.19133 5.43362 -5.56474 3.19135 5.43362 89.0536 -21.1522 -112.801 28.0159 -23.889 26.0335 -42.158 -9.08084 -74.6923 -36.6574 1.20697 -12.6996 -84.3437 -45.503 86.661 6.60937 19.9914 -17.3772 34.7732 -2.0621 -74.5789 12.2207 -1.00413 -11.4752 30.2958 -23.2908 -13.9639 -5.44622 -16.5331 -12.075 
-62.5714 86.4166 6.69538 87.5193 -21.7533 78.2322 -173.312 20.1913 86.6315 -59.5752 16.1707 -0.454922 95.074 13.9747 -5.78699 27.8718 0.828893 -1.2927 -179.723 27.9954 84.9265 -114.816 -6.99048 -0.695481 90.4582 -16.0758 -5.36625 5.58895 -4.60864 9.66866 1.37892 8.97289 -87.9816 8.85436 3.64886 3.74985 -2.81639 3.81023 3.58572 -25.3285 2.35459 4.67171 -5.31582 2.35455 4.67169 90.8057 -19.6973 -109.554 42.6897 -28.9821 35.0264 -44.2753 -6.44445 -73.8956 -31.7958 1.45667 -14.9481 -84.6843 -42.082 85.645 6.32068 10.3327 -25.7251 34.792 -4.06714 -79.3547 11.1582 -1.31019 -14.6329 30.4832 -19.8 -13.0641 -5.46904 -13.4558 -10.6708 
-57.2834 86.5346 12.517 85.4541 -24.0265 79.4415 -171.6 14.6576 91.9767 -55.012 18.5749 -0.716925 95.1144 14.5019 -4.34761 33.0153 0.754429 -1.81113 -172.401 39.2367 82.3818 -115.958 -4.68571 -0.629704 92.5578 -17.1179 -5.08793 6.5218 -4.99504 10.3514 0.760509 8.5733 -88.2007 9.68061 2.32902 3.38655 -1.99239 2.47575 3.28088 -24.498 1.20446 3.92917 -4.4853 1.20444 3.92915 92.0184 -18.9589 -107.05 58.3505 -33.2704 46.2148 -47.5157 -4.16445 -72.2692 -30.5671 1.4635 -15.5041 -84.8762 -37.9394 84.661 7.77732 1.55493 -31.1765 36.5377 -6.45179 -84.7768 13.9579 -1.3946 -13.4402 29.0531 -15.8625 -14.1621 -5.95591 -9.40984 -8.22663 
-51.4664 87.3362 18.9933 84.3597 -25.268 81.3612 -170.57 7.98463 97.2241 -48.3672 22.1801 0.202236 90.1489 13.2429 -1.84881 39.3809 0.0501725 -1.2551 -167.963 47.5431 80.7973 -111.759 0.430223 -0.990242 95.6342 -17.869 -3.01092 3.74439 -2.72939 6.57587 -0.125628 8.23856 -88.5055 10.3817 0.434189 2.93021 -1.29243 0.56267 2.90828 -23.8012 -0.466167 2.9253 -3.78856 -0.466138 2.9253 92.8862 -16.91 -105.896 72.754 -33.4451 57.6077 -49.0337 -1.96958 -70.7483 -31.2949 1.33016 -14.4844 -84.2883 -30.9471 84.4974 7.67608 -6.40114 -32.2427 35.9216 -9.03675 -90.6064 12.1751 -1.46667 -15.1012 28.0045 -11.4767 -15.4324 -7.93201 -4.74703 -6.33702 
-45.1593 88.6413 25.6701 84.4716 -26.9746 83.7918 -169.284 -1.14565 101.08 -38.0362 24.1701 1.57587 80.4865 9.80569 1.26085 49.7147 -0.619681 -1.23719 -165.538 52.5572 80.6955 -103.255 4.79578 -1.87255 97.4228 -17.6201 -1.06344 4.78847 -2.31091 5.94874 -1.01767 8.06827 -88.8554 10.7477 -1.49861 2.41477 -0.924793 -1.3909 2.47834 -23.4551 -2.15492 1.85297 -3.4425 -2.15495 1.85296 94.076 -14.5764 -103.918 82.4334 -32.3893 66.5292 -47.3148 1.23449 -69.1957 -29.1931 1.85258 -16.6799 -83.484 -22.8944 84.5502 6.36059 -13.0854 -28.8985 34.2049 -10.8812 -96.6508 13.84 -1.70037 -15.6355 28.3008 -7.30661 -17.1965 -10.478 -0.0190434 -3.64047 
-38.5513 90.1631 32.4938 84.2072 -29.7799 86.5263 -167.111 -10.6563 104.617 -25.9253 26.5224 2.41697 65.9542 3.74307 6.64156 56.3607 -0.244178 -3.78782 -165.024 55.9152 83.0307 -91.7097 5.4572 -3.05633 95.2159 -15.9283 0.0522917 6.93215 -2.17028 5.73006 -1.69207 7.96556 -89.3592 10.9655 -3.07187 1.56688 -0.702947 -2.99994 1.70063 -23.2656 -3.40065 0.570353 -3.25292 -3.40064 0.57036 95.6147 -10.4126 -101.638 87.2405 -29.8527 71.6602 -49.6239 1.87949 -67.8114 -26.7799 2.12792 -19.4027 -82.7554 -15.4277 84.5259 5.06513 -17.2015 -24.5009 31.6481 -12.0107 -101.787 14.98 -1.76794 -15.3351 30.9048 -3.41604 -17.2592 -14.5519 4.08299 -1.41003 
-31.4798 91.7845 39.5465 82.982 -33.9705 89.3993 -165.718 -17.6849 106.895 -18.2301 23.102 3.91378 55.1882 -1.42637 5.17646 38.8326 2.57918 -6.47531 -166.698 57.0753 88.0948 -77.7694 -0.396458 -4.11232 89.5778 -14.2247 -1.93645 8.1861 -1.13987 3.99249 -2.03172 7.91506 -89.9848 11.057 -4.03733 0.418975 -0.607791 -4.01498 0.596551 -23.1922 -3.97628 -0.815755 -3.17954 -3.97628 -0.815749 91.4675 -11.3688 -112.754 76.471 -11.1819 69.5518 -47.7238 0.673445 -72.1789 -27.4999 2.07048 -19.0328 -82.1632 -10.1958 84.7357 4.58352 -18.6718 -22.4047 29.2943 -12.3571 -104.644 14.5162 -1.75197 -15.5269 33.9861 -0.226881 -17.8247 -18.6998 7.4279 2.10845 
-24.3823 92.7868 46.4906 80.5698 -37.8577 91.6032 -165.93 -19.8343 107.538 -20.0793 19.1181 5.51379 56.2111 -0.971601 3.4287 15.2029 1.81155 -1.21048 -170.662 56.9171 93.8616 -63.4714 -7.37062 -4.05507 84.4233 -12.2877 -2.10363 11.3928 -0.814189 3.28132 -2.09569 7.92762 -90.6564 11.0051 -4.47591 -0.877792 -0.658324 -4.5102 -0.679574 -23.243 -4.00491 -2.18432 -3.23032 -4.00491 -2.18434 94.4408 -10.9167 -104.711 74.8808 -16.1263 69.9553 -41.4424 2.72433 -71.3692 -28.9889 3.04142 -21.0214 -82.1776 -4.47043 82.9119 1.04315 -18.9915 -20.8566 28.6202 -12.8584 -106.831 13.6459 -1.95136 -17.5557 36.8818 2.1558 -18.138 -21.1576 9.74848 5.22286 
-17.6264 92.7709 52.8176 79.4525 -41.2441 92.1745 -167.248 -20.4094 105.326 -28.7562 17.2811 5.73053 60.5382 1.23911 3.93508 19.1641 3.81996 -4.58482 -174.892 54.5386 97.34 -51.3502 -14.156 -3.00691 79.663 -10.0481 -1.90463 15.5463 0.170776 1.17467 -2.07948 8.01538 -91.0767 10.8111 -4.63759 -1.71129 -0.852469 -4.70838 -1.50515 -23.4291 -3.90884 -3.02731 -3.41643 -3.90883 -3.02731 91.896 -13.3579 -110.331 65.4168 -6.02133 66.408 -37.0124 -0.709371 -74.8194 -31.6762 3.21243 -20.2565 -81.9774 -2.86494 83.0149 -3.91213 -15.425 -24.5903 30.1354 -13.7784 -106.341 11.8777 -2.13196 -20.6026 37.1234 5.5771 -15.091 -18.914 11.6514 4.92761 
-11.0631 92.2034 58.8364 80.7688 -44.0003 92.2918 -168.19 -20.0121 101.723 -41.2381 18.0475 4.79172 60.1105 1.02829 5.0971 27.0706 3.94916 -6.28859 -178.273 50.2588 98.6059 -44.402 -16.2862 -1.80635 78.8134 -9.61528 -2.50841 14.7953 -0.0999896 1.75023 -2.06218 8.17213 -91.313 10.4844 -4.7102 -2.19136 -1.17955 -4.80205 -1.98159 -23.749 -3.83402 -3.50654 -3.73637 -3.83402 -3.50653 91.1157 -17.4957 -109.994 57.1575 -3.70012 61.3287 -39.6633 -2.86331 -77.9436 -30.7739 2.51712 -18.6275 -82.5347 -8.0433 82.9522 -7.13476 -6.91319 -29.0293 34.5682 -15.8128 -103.615 8.97346 -1.62398 -19.6615 35.7666 10.0356 -7.46395 -15.9161 12.6992 1.74747 
-4.62796 91.2426 64.957 83.0079 -46.6232 93.0295 -168.07 -16.872 98.8591 -58.0519 17.6062 3.99254 60.403 0.906176 4.25327 28.5896 4.69721 -7.86491 178.941 45.0974 99.1574 -41.9235 -12.8132 -0.502272 78.6527 -9.36335 -1.90923 15.1082 -0.521736 2.55197 -1.95556 8.34407 -91.3557 10.1384 -4.51459 -2.31178 -1.5264 -4.61193 -2.11058 -24.0889 -3.61138 -3.56226 -4.07625 -3.61136 -3.56225 88.3219 -21.6591 -114.158 48.285 0.349683 53.48 -39.4126 -6.11293 -81.3115 -31.0231 2.38716 -18.425 -83.572 -15.2391 82.4623 -9.71261 3.5388 -31.9786 38.1469 -16.3106 -98.9774 5.92084 -1.21672 -19.8104 34.7656 12.2502 -4.40717 -15.6876 13.4239 1.45484 
1.7169 90.1585 71.2898 85.706 -48.62 95.008 -165.601 -11.104 98.7799 -76.6838 16.5668 3.92692 61.231 1.13397 5.34643 26.4245 5.00325 -7.84202 177.214 38.9626 98.8102 -40.9388 -9.39367 0.273354 75.9651 -7.93458 -0.656786 17.0938 -0.403862 2.30462 -1.72722 8.55868 -91.4858 9.7045 -4.11495 -2.62398 -1.96222 -4.22639 -2.44019 -24.5097 -3.13659 -3.73925 -4.49709 -3.13659 -3.73925 85.2937 -28.377 -116.785 37.0693 2.04746 43.2621 -40.2745 -7.59411 -85.4595 -30.4435 2.23382 -18.4685 -85.0765 -24.949 81.6409 -11.1067 13.1888 -33.3911 41.136 -14.1963 -92.5223 6.11069 -1.15373 -18.6279 34.2408 13.7311 -1.16543 -15.7868 13.4328 1.28279 
7.63292 89.2145 77.3956 86.0231 -51.1172 94.7815 -162.34 -1.54335 98.6812 -93.9236 7.40464 4.21595 62.4961 1.93532 5.44999 27.0272 5.53485 -8.84768 175.419 37.1016 98.0658 -46.4761 -8.9183 0.895863 71.3285 -5.49695 0.397175 18.47 -1.26997 4.06256 -1.33798 8.59262 -91.5267 9.64113 -3.35684 -2.76742 -2.02813 -3.47534 -2.617 -24.5592 -2.37055 -3.6478 -4.54657 -2.37054 -3.6478 85.0981 -31.248 -115.684 31.6972 3.41391 28.0913 -38.1027 -6.31304 -88.8859 -29.9145 2.21869 -18.3215 -85.9615 -33.3833 81.8327 -15.5111 20.9811 -30.6837 43.3924 -9.66794 -85.3575 5.67296 -1.1433 -19.2677 33.604 14.0871 0.903443 -14.7839 12.8462 1.7452 
13.0091 87.4509 83.1327 85.7924 -53.2268 94.8585 -158.882 9.62183 97.8153 -110.617 -0.0149619 6.08337 64.2071 2.78989 5.33101 26.4224 4.63391 -7.24521 173.737 35.7797 98.183 -55.5184 -10.4664 1.41762 82.8086 -10.4922 1.23424 15.3057 -1.70802 4.89439 -0.856295 8.55447 -91.6794 9.72069 -2.46658 -3.13653 -1.95144 -2.60218 -3.02503 -24.4639 -1.41065 -3.73212 -4.45128 -1.41066 -3.73213 86.7832 -31.6218 -112.324 29.4115 4.60497 9.82787 -39.0883 -5.27146 -92.9761 -28.495 1.92974 -17.9618 -86.298 -40.893 82.752 -22.1073 25.8634 -20.6598 44.0672 -5.84187 -80.832 4.2564 -0.999173 -19.9529 31.4807 14.444 4.26491 -12.0129 11.9215 1.49227 
18.284 86.272 88.7931 88.3624 -56.4448 100.286 -156.862 23.7017 98.5814 -124.379 2.68113 8.23392 64.6536 2.64393 9.05852 22.2947 5.50982 -7.63765 172.675 29.3666 100.389 -57.6686 -14.2857 2.2131 89.4141 -13.9342 0.0497944 15.5538 -0.568925 2.61604 -0.209728 8.74594 -92.1043 9.33947 -1.36311 -4.06971 -2.33692 -1.54073 -4.00592 -24.8211 -0.0782176 -4.29084 -4.80847 -0.0782155 -4.29084 87.8979 -31.4784 -110.26 27.7002 7.27233 -11.0496 -41.1379 -3.98475 -96.7574 -29.5616 1.40754 -15.5535 -85.8633 -46.4957 84.411 -29.5356 26.3819 -2.29081 43.2375 -6.84418 -81.362 2.95951 -0.889709 -21.4069 29.8005 14.4333 6.54146 -9.3746 11.0704 2.44364 
